# xmcd
#
# Track frame offsets:
#	150
#	12506
#	29114
#	42951
#	55951
#	71862
#	85733
#	105521
#	121352
#	138921
#	153704
#	174146
#	191522
#	207200
#
# Disc length: 2951 seconds
#
# Revision: 0
# Processed by: cddbd v1.5.2PL0 Copyright (c) Steve Scherf et al.
# Submitted via: EasyCDDAExtractor 11.1.0.1
#
DISCID=c20b850e
DTITLE=Bibbi and Snif
DYEAR=2010
DGENRE=country
TTITLE0=That's why
TTITLE1=These boots are made for walkin'
TTITLE2=Old cowboy song
TTITLE3=Free
TTITLE4=Our rockin' years
TTITLE5=Two more bottles of wine
TTITLE6=Let him run
TTITLE7=Old car
TTITLE8=Sorry mama I got kicked out of the churchchoir today
TTITLE9=Livin' in a hurricane
TTITLE10=Hold on
TTITLE11=Chasing you
TTITLE12=Behind closed doors
TTITLE13=Mercedes benz
EXTD=
EXTT0=
EXTT1=
EXTT2=
EXTT3=
EXTT4=
EXTT5=
EXTT6=
EXTT7=
EXTT8=
EXTT9=
EXTT10=
EXTT11=
EXTT12=
EXTT13=
PLAYORDER=
